<svg version="1.2" xmlns="http://www.w3.org/2000/svg" viewBox="0 0 383 385" width="383" height="385"><style>.s0{fill:#ffffff}</style><path fill-rule="evenodd" class="s0" d="m9 384.2c-6.5-2.9-8.9-8.1-8.3-15.1c0.8-8.3 0.2-16.8 2-24.9c3.6-16 13.5-27.8 27.8-35.8q1.5-0.8 3-1.6c0.1-0.1 0.2-0.2 0.5-0.5c-9.7-13-13.2-27.4-9.1-43.3c2.9-11.2 9.2-20.2 18.5-27c18.5-13.6 44-12 61 3.3c15.6 13.9 24.1 41.7 5.9 66.4c7.3 5.7 14.5 11.5 21.5 17c6.6-5.2 13.8-11 21.4-17.1c-9.8-13.3-13.1-28.8-7.6-45.7c3.4-10.4 9.8-18.8 18.9-24.8c19-12.6 43.2-10.8 59.5 4.1c9.6 8.7 15 19.6 16.2 32.4c0.9 10.5-1.2 17.3-10.1 34.1c7.4 5.8 14.6 11.5 21.5 17c6.7-5.3 13.9-11.1 21.4-17.1c-9.1-12.3-12.7-26.7-8.6-42.6c2.9-11.2 9.3-20.2 18.5-27c18.5-13.6 44.1-12 61.1 3.3c15.6 14 24 41.7 5.3 67.1q1.4 0.8 2.8 1.6c19.6 11 29.8 27.7 30.4 50.3c0.1 3.6-0.2 7.2 0.1 10.8c0.6 7-1.8 12.1-8.3 15.1q-182.7 0-365.3 0zm111.4-22.6c1-19.6-10.9-35-29.5-36.9c-12.6-1.2-25.4-1.2-38 0c-18.7 1.8-31.8 19-29.3 36.9c32.2 0 64.4 0 96.8 0zm22.8-0.1c32.5 0 64.7 0 96.8 0c2-19.5-12.8-36.7-32.1-37.2c-10.4-0.3-20.9-0.2-31.4 0c-20 0.2-34.9 16.8-33.3 37.2zm119.8 0c32.5 0 64.7 0 96.8 0c1.6-18.2-10.1-34.4-27.7-36.4c-13.3-1.5-27-1.6-40.3-0.2c-18.5 1.9-30.5 18.3-28.8 36.6zm-217.3-86.1c-0.1 14.4 11.7 26.3 26.1 26.3c14.4 0.1 26.2-11.7 26.3-26.1c0-14.5-11.7-26.3-26.1-26.3c-14.4-0.1-26.3 11.7-26.3 26.1zm119.8 0.2c0 14.4 11.8 26.2 26.3 26.1c14.3 0 26.1-11.9 26-26.3c0-14.5-11.8-26.2-26.3-26.1c-14.4 0-26.1 11.8-26 26.3zm146-26.3c-14.4-0.1-26.2 11.7-26.3 26.1c0 14.4 11.7 26.3 26.1 26.3c14.4 0.1 26.3-11.7 26.3-26.1c0-14.5-11.7-26.3-26.1-26.3z" /><path fill-rule="evenodd" class="s0" d="m195.4 0.2c7.1 2.4 11.2 7.7 14.1 14.4c3.4 7.6 7.4 15 11 22.5c1 2.3 2.4 3.4 4.9 3.7c10 1.3 20 2.8 30 4.4c6.9 1 11.6 4.9 13.9 11.5c2.2 6.6 0.7 12.7-4.2 17.6c-7.2 7.4-14.7 14.6-22.2 21.8c-1.6 1.5-2 3-1.6 5.2c1.8 10.2 3.6 20.4 5.2 30.7c1.1 6.7-1.4 12.3-6.8 16.3c-5.5 4.1-11.6 4.7-17.7 1.6q-13.7-6.9-27.1-14.3c-2.4-1.3-4.2-1.2-6.5 0c-8.9 4.9-17.8 9.5-26.8 14.1c-6.2 3.2-12.4 2.7-18-1.4c-5.6-4.1-7.9-9.8-6.8-16.7q0.9-5.9 1.9-11.8c1.1-6.3 2.4-12.6 3.2-18.9c0.2-1.5-0.6-3.6-1.7-4.7c-6.8-7-13.8-13.8-20.8-20.5c-5.4-5.2-7.8-11.3-5.5-18.6c2.3-7.3 7.6-11.1 15.1-12.2c9.6-1.3 19.2-2.9 28.8-4.1c2.6-0.3 4-1.4 5-3.7c3.6-7.5 7.6-14.9 11-22.5c2.9-6.7 7-12 14.1-14.4q3.7 0 7.5 0zm-3.8 29.2c-4.2 8.7-8.2 16.6-12 24.5c-2.2 4.7-5.6 7.5-10.9 8c-1.4 0.1-2.9 0.4-4.4 0.6c-7.3 1.1-14.6 2.2-21.6 3.2c4.8 5.1 9 10.7 14.3 14.9c7.9 6.4 10 13.8 7.3 23.5c-1.8 6.5-2.3 13.3-3.6 20.7c8.2-4.3 15.8-8 23.1-12.2c5.5-3.2 10.5-3.2 15.8 0.1c3.1 1.9 6.4 3.4 9.6 5.1c4.2 2.2 8.5 4.4 13.1 6.8c-0.1-1.3 0-2-0.2-2.7c-1.3-7.9-2.6-15.8-4.1-23.6c-1-5.3 0.1-9.8 4.3-13.5c5.3-4.9 10.4-10.1 15.6-15.1c1.1-1.1 2.6-1.8 3.9-2.7q-0.5-0.6-1-1.3c-8.7-1.3-17.4-2.7-26.1-3.8c-5.2-0.6-8.7-3.1-10.9-7.8c-3.8-8-7.8-15.9-12.2-24.7z" /><path fill-rule="evenodd" class="s0" d="m65.2 60.2c6.5 0.4 11.3 3.3 14.2 9q4.9 9.7 9.6 19.5c0.9 1.9 2 3 4.3 3.3c6.6 0.7 13.1 1.9 19.6 2.8c7.2 0.9 12.6 4 15 11.1c2.4 7.1-0.1 12.9-5.4 17.9c-4.7 4.4-9.2 9.1-14 13.5c-1.9 1.7-2.4 3.4-1.9 5.9c1.4 7.1 2.5 14.3 3.6 21.4c1 6.4-1.2 11.7-6.3 15.4c-5.2 3.7-10.9 4.1-16.6 1.2c-6.6-3.4-13-7-19.6-10.2c-1.4-0.6-3.6-0.7-5 0c-6.3 3-12.4 6.4-18.6 9.7c-6 3.2-12 3.4-17.6-0.7c-5.6-4-7.5-9.6-6.3-16.4c1.2-6.9 2.5-13.8 3.4-20.7c0.2-1.7-0.5-4-1.6-5.2c-4.8-5-9.9-9.8-14.9-14.7c-4.9-4.7-6.9-10.4-4.7-17c2.1-6.4 6.8-9.9 13.4-11c7.1-1 14.3-1.9 21.4-3.2c1.4-0.2 3.1-1.5 3.8-2.8c3.4-6.5 6.5-13.2 9.9-19.7c2.9-5.9 7.9-8.8 14.3-9.1zm-20.8 94.9c5.2-2.7 9.6-4.8 13.7-7.3c4.8-2.8 9.4-2.7 14.1 0.1c4.3 2.4 8.7 4.5 13.6 7.1c-0.8-5.2-1.3-9.7-2.3-14c-1.5-6.2-0.1-11.2 4.9-15.4c3.4-3 6.3-6.6 9.7-10.2c-4.8-0.7-9.3-1.5-13.9-1.9c-5.9-0.6-10-3.2-12.4-8.8c-1.9-4.4-4.2-8.6-6.7-13.5c-2.4 4.9-4.7 9-6.5 13.3c-2.4 5.7-6.6 8.4-12.6 9c-4.6 0.4-9.1 1.3-13.9 2c3.7 3.8 6.9 7.5 10.4 10.7c4.5 3.9 5.6 8.6 4.5 14.2c-1 4.6-1.7 9.2-2.6 14.7z" /><path fill-rule="evenodd" class="s0" d="m317.9 60.2c6.7 0.3 11.5 3.2 14.4 8.9c3.4 6.6 6.5 13.3 9.9 19.8c0.7 1.3 2.6 2.6 4.1 2.9c6.5 1.2 13 2.1 19.6 3c7.1 0.9 12.6 3.9 15 11c2.4 7.1-0.1 12.9-5.3 17.9c-4.8 4.6-9.4 9.3-14.3 13.8c-1.8 1.7-2.1 3.3-1.7 5.6c1.3 7.1 2.5 14.3 3.6 21.4c1.1 6.4-1.1 11.7-6.3 15.5c-5.1 3.7-10.8 4.1-16.6 1.2c-6.5-3.3-13-6.7-19.5-10.3c-2-1.1-3.5-1-5.4 0.1c-6 3.3-12.2 6.4-18.2 9.6c-6 3.3-12 3.5-17.6-0.5c-5.6-4-7.6-9.6-6.4-16.4c1.2-6.9 2.2-13.8 3.5-20.7c0.5-2.3 0-3.9-1.8-5.6c-4.9-4.5-9.6-9.4-14.5-14c-5.2-5-7.3-10.8-4.9-17.7c2.3-6.7 7.5-9.9 14.3-10.8c6.6-0.9 13.1-2.1 19.6-2.8c2.8-0.3 4.1-1.5 5.2-3.9c2.9-6.4 6.1-12.6 9.2-18.8c3-5.9 7.9-8.8 14.1-9.2zm-20.5 94.9c4.8-2.6 9.1-4.5 13.1-7c5.3-3.2 10.2-3 15.5 0.1c3.9 2.3 8.1 4.3 12.9 6.8c-0.9-5.2-1.4-9.7-2.4-14c-1.4-6.1-0.2-11 4.6-15.2c3.5-3 6.5-6.7 10-10.4c-4.8-0.7-9.4-1.5-13.9-1.9c-5.9-0.6-10-3.2-12.4-8.8c-1.9-4.4-4.2-8.6-6.6-13.5c-2.4 4.8-4.7 8.8-6.5 13c-2.4 6-6.8 8.8-13.1 9.3c-4.4 0.4-8.8 1.3-13.5 2c3.7 3.8 6.9 7.5 10.5 10.7c4.4 3.9 5.5 8.6 4.4 14.2c-1 4.6-1.7 9.3-2.6 14.7z" /></svg>