<svg version="1.2" xmlns="http://www.w3.org/2000/svg" viewBox="0 0 349 410" width="349" height="410"><style>.s0{fill:#ffffff}</style><path fill-rule="evenodd" class="s0" d="m177 0.6c50.9 30.1 104.8 53.3 161.7 69.5c9 2.5 10.2 4.1 10.1 13.4c0 30.7 0.5 61.4-0.3 92.2c-1.6 64.2-24.1 120.2-67.9 167.5c-22 23.6-47.3 42.8-76.4 56.8c-7 3.4-14.5 6-21.9 8.2c-9 2.8-17.7-0.1-26-3.3c-24.1-9.3-45.4-23.4-64.9-39.9c-30.6-26-54.4-57.1-70.3-94.1c-11.1-25.7-18.6-52.6-19.5-80.5c-1.3-36.7-0.9-73.4-1.2-110.1c0-5.4 2.1-7.9 7.9-9.5c25.5-7.3 50.7-15.8 75.3-25.9c28.3-11.6 55.6-25.2 82.1-40.5q3.3-1.9 6.5-3.8q2.4 0 4.8 0zm155.4 137.4q-0.3 0-0.6 0c0-16-0.1-31.9 0-47.9c0.1-3-0.6-4.4-3.7-5.3c-52.6-15.3-102.7-36.7-150.3-63.9c-2.2-1.3-3.9-1.5-6.2-0.1c-47.6 27.5-97.8 48.9-150.6 64.1c-2.9 0.8-3.7 2.1-3.6 5c0.1 25.4-0.1 50.8 0 76.2c0.2 29.4 4.5 58.2 14.7 86c12.3 33.4 31.3 62.4 56.7 87.2c21.1 20.6 44.7 37.5 72.1 49.1c8.4 3.6 16.7 4.9 25.3 0.8c3.8-1.7 7.7-3.1 11.3-5c45-22.7 80.1-55.8 104.7-99.7c16.1-28.6 25.6-59.5 28.1-92.3c1.3-18 1.4-36.1 2.1-54.2z" /><path fill-rule="evenodd" class="s0" d="m146.7 219.9c1.9-2.4 2.6-3.7 3.7-4.8q40.6-40.7 81.2-81.3c10.7-10.7 23.9-12.7 35.9-5.6c14 8.3 17.7 28 7.6 40.7c-1.2 1.4-2.3 2.9-3.7 4.2q-51.6 51.6-103.2 103.3c-8.7 8.7-18.9 11.9-30.6 7.7c-4-1.5-7.9-4.1-10.9-7q-25-24.4-49.5-49.4c-14.3-14.6-11-36.8 6.9-45.5c10.2-5 20.6-4.3 29.2 3.2c10.3 9.2 19.8 19.3 29.6 29.1c1.3 1.3 2.2 3 3.8 5.4zm0.8 50c3.1-2.2 6.5-3.8 9-6.3c34.1-34 68.1-68 102.2-102.1c0.9-0.9 1.9-1.8 2.7-2.9c4.7-6.2 1.9-14.7-5.6-16.9c-5.1-1.5-8.7 0.9-12 4.3q-44.2 44.1-88.3 88.3c-6.5 6.5-10.5 6.5-16.9 0.1c-11.4-11.5-22.9-23-34.4-34.4c-4.8-4.7-11.4-4.7-15.7-0.3c-4.2 4.4-4.2 10.8 0.5 15.4c16.6 16.8 33.4 33.6 50.2 50.2c2 1.9 5 2.8 8.3 4.6z" /><path class="s0" d="m34.3 121.3c0-4.8-0.1-9.6 0-14.4c0-6.1 1.8-8.6 7.6-10.6c14.6-5.2 29.3-10.2 43.8-15.6c8.9-3.3 14.1 3.5 13 8.9c-0.8 4.3-3.8 6.2-7.4 7.5c-12 4.3-24 8.7-36 12.8c-2.9 1-3.9 2.2-3.8 5.3c0.2 7.3 0.1 14.6 0.1 21.9c-0.1 3.8-1.4 7.1-5.2 8.8c-3.2 1.4-6.6 1.2-8.8-1.4c-1.8-2.1-2.9-5.3-3.2-8.1c-0.5-5-0.1-10.1-0.1-15.1z" /><path class="s0" d="m272.4 276.7c7 0.1 10.8 7.3 6.7 13.5c-4 6.1-8.3 12-12.9 17.7c-11.3 14.2-24.4 26.6-38.6 37.8c-4.9 3.9-9.9 3.8-13.1-0.2c-3.3-3.9-2.6-9 2.1-12.9c12.9-10.5 25.2-21.6 35.6-34.7c4.2-5.3 8.1-10.8 12.1-16.3c2-2.8 4.3-5.1 8.1-4.9z" /><path class="s0" d="m200 345.6c4.5-0.1 8.5 3.7 8.7 8.2c0.1 4.6-4 9-8.7 9.2c-4.7 0.2-8.7-3.6-8.8-8.4c0-4.9 3.9-8.9 8.8-9z" /><path class="s0" d="m123.4 77.9c0.1 4.5-3.9 8.5-8.6 8.7c-4.5 0.2-8.7-3.9-8.6-8.6c0-4.3 3.9-8.3 8.3-8.5c4.5-0.2 8.8 3.8 8.9 8.4z" /></svg>