<svg version="1.2" xmlns="http://www.w3.org/2000/svg" viewBox="0 0 382 384" width="382" height="384"><style>.s0{fill:#ffffff}</style><path fill-rule="evenodd" class="s0" d="m99.6 45.4c-4.9 2.8-9.9 5.3-14.7 8.1c-1.7 1.1-3.3 2.6-4.4 4.3c-2.7 4.6-5.2 9.4-7.7 14.1c-1.6 3-3.9 5-7.3 5c-3.5 0-6.1-1.7-7.3-4.9c-4.9-12.8-13.8-21.5-26.5-26.4c-3.1-1.2-4.7-3.7-4.8-7c0-3.4 1.7-6.1 4.9-7.3c12.6-4.9 21.4-13.5 26.3-26.1c0.8-2 3-3.5 4.5-5.2q2.6 0 5.3 0c2.4 3.1 5.5 5.8 7 9.3c4 9.3 10.2 15.9 19.7 19.5c1.7 0.7 3.3 1.7 4.9 2.7c5.8 3.5 5.9 10.4 0.1 13.9zm-19.6-7c-7.1-2.8-11.8-7.4-14.6-14.6c-2.5 7.5-7.9 11.7-15 14.5c3.7 2.2 7.2 3.4 9.6 5.8c2.3 2.4 3.5 5.8 5.7 9.6c2.3-7.8 7.4-12.3 14.3-15.3z" /><path fill-rule="evenodd" class="s0" d="m306.1 331.9q0 0.3 0 0.5q0 21.3 0 42.7c0 5.2-2.9 8.2-7.6 8.1c-4.8 0-7.6-3-7.6-8.2c0-9.4 0-18.7 0-28.1q0-8.5 0-17.1c0-28 0.1-126.5 0-151.2c-0.1-16.6-4.4-32.2-13-46.5c-0.7-1.1-1.4-2.1-2.8-4.1c-0.2 4.2-0.4 7.3-0.6 10.4c-1 19-1.6 37.9-3.1 56.8c-2.3 30.1-28.2 56.7-58.1 60.8c-40 5.4-74.4-20.3-79.9-60.3c-1.5-10.6-1.3-21.4-1.9-32.1c-0.6-12-1.1-23.9-1.7-35.9c-0.1-1.2-0.3-2.4-0.5-4.7c-8.2 10.5-13.8 21.4-16.4 33.4c-1.7 8-2.9 16.3-2.9 24.4c-0.2 63.8-0.1 127.5-0.1 191.2c0 1.5 0 3-0.1 4.5c-0.3 4.1-3.3 6.7-7.5 6.7c-4.2 0-7.2-2.6-7.5-6.7c-0.1-1.3-0.1-2.5-0.1-3.8c0-63.7 0.1-127.5 0-191.2c-0.1-30.6 10.3-56.7 31.9-78.5c1.1-1.1 1.7-3.2 1.6-4.9c-0.2-9.1-0.2-18.2 2.3-27.1c5.8-19.8 24.4-34.6 45-35c18-0.3 36-0.4 53.9 0c26.8 0.7 48.6 24.6 47.6 51.6c-0.2 5.5-1.9 11.4-0.4 16.3c1.5 4.8 6.2 8.5 9.3 12.8c12.7 17.5 19.8 37.1 20 58.8c0.4 26.3 0.2 130.1 0.2 156.4zm-44.4-245.8c0.3-17.8-13.2-33.4-30.9-34.3c-18.5-1.1-37.2-1.2-55.7-0.2c-19.9 1.1-33.3 18-32 37.9c1 17.6 1.7 35.1 2.7 52.7c0.9 17.5 1.2 35.2 3 52.6c2.8 27.1 28.1 47.9 55.5 46.8c28.1-1.1 51.1-23.6 52.3-51.2c0.8-17.5 1.7-34.9 2.6-52.3q0.1 0 0.1 0c0.8-17.3 2-34.6 2.4-52z" /><path fill-rule="evenodd" class="s0" d="m381.6 82.2c0 3.2-1.6 5.6-4.5 7.1c-5.5 3.1-11.2 6-16.6 9.2c-1.6 1-3.2 2.5-4.1 4.1c-3.2 5.4-6.1 10.8-9 16.3c-1.6 3.1-3.9 4.8-7.4 4.8c-3.4-0.1-5.6-1.9-7.1-4.8c-3-5.5-6-11.2-9.2-16.6c-0.8-1.5-2.1-2.8-3.5-3.6c-5.5-3.2-11.1-6.2-16.7-9.2c-2.9-1.5-4.7-3.7-4.8-7c0-3.5 1.8-5.8 4.8-7.4c5.5-3 11-5.9 16.3-9c1.7-1 3.2-2.5 4.1-4.1c3.2-5.4 6.1-10.9 9-16.4c1.5-2.8 3.7-4.6 7.1-4.7c3.5 0 5.8 1.7 7.4 4.7c3 5.6 6 11.2 9.2 16.7c0.8 1.4 2.1 2.7 3.5 3.6c5.5 3.1 11.1 6.1 16.7 9.1c2.9 1.6 4.7 3.7 4.8 7.2zm-23.1 0.5c-4.8-2.8-9-4.3-11.9-7.2c-2.8-2.9-4.2-7.1-6.8-11.6c-2.9 9.4-8.6 15.1-17.2 18.4c8.6 3.2 14.2 9.1 17.6 17.6c3.2-8.6 8.8-14.3 18.3-17.2z" /><path fill-rule="evenodd" class="s0" d="m77.3 229.9c-6.2 3.6-13.4 5.9-18.3 10.7c-4.7 4.8-7 12-10.4 18c-3.5 6.1-10.6 6.2-14.1 0.1c-3.1-5.4-5.9-10.9-9-16.3c-0.8-1.4-2.2-2.8-3.6-3.6c-5.4-3.1-11-5.8-16.3-9.1c-2.1-1.4-3.5-4-5.7-6.7c2-2.8 3.3-5.2 5.2-6.8c2.1-1.7 4.6-3 7.2-4c9-3.6 15.2-9.8 18.7-18.9c0.9-2.3 2.3-4.4 3.6-6.6c3.5-5.8 10.4-5.9 13.8 0c3.2 5.4 6 10.9 9.1 16.3c0.9 1.5 2.3 2.9 3.8 3.8c5.2 3 10.5 5.8 15.7 8.7c6.6 3.7 6.7 10.7 0.3 14.4zm-19-7.2c-8.3-2.9-13.5-8.4-16.5-17.2c-2.5 4.4-3.8 8.4-6.4 11c-2.7 2.7-6.7 4.1-10.5 6.3c3.6 2.1 7.6 3.5 10.3 6.1c2.7 2.7 4.1 6.7 6.6 11c2.8-8.7 8.3-14.1 16.5-17.2z" /><path class="s0" d="m242.5 335.9c0.1 5-2.9 7.7-8.8 7.7q-31.6 0-63.2 0c-6.4 0-10-5.1-7.7-10.8c1.4-3.3 4.1-4.4 7.5-4.4c10.7 0.1 21.4 0 32.2 0c10.4 0 20.9 0 31.4 0c5.7 0.1 8.6 2.6 8.6 7.5z" /><path class="s0" d="m181.5 312.4c-5.2-0.1-8.1-2.9-8.1-7.7c0.1-4.8 3-7.5 8.3-7.5q20.4-0.1 40.8 0c5.2 0 8.1 2.9 8.1 7.7c0 4.6-2.9 7.4-7.9 7.5c-7 0.1-14 0-21 0c-6.7 0-13.4 0.1-20.2 0z" /></svg>