<svg version="1.2" xmlns="http://www.w3.org/2000/svg" viewBox="0 0 384 293" width="384" height="293"><style>.s0{fill:#ffffff}</style><path fill-rule="evenodd" class="s0" d="m191 51.7c32.7 0.5 62.7 8.2 91.4 21.2c36.4 16.5 68.4 39.2 96.9 67c5.4 5.4 5.5 8.2 0 13.5c-36.9 35.7-78.8 63.5-128.3 78.9c-20.5 6.3-41.6 9.8-63.1 9.2c-26.3-0.7-51.7-6.7-76-16.7c-41-16.7-76.6-41.3-108-72.2c-4.4-4.3-4.4-7.5 0-11.8c36.6-35.8 78.4-63.6 127.6-79.2c19.7-6.3 39.8-9.5 59.5-9.9zm-80.4 94.8c0.1 47.7 39.9 82.4 83 81.3c44.1-1.1 80.1-37.1 79.8-81.1c-0.3-47.9-40.2-81.8-82.5-81.2c-41.1 0.5-80.2 34.1-80.3 81zm147.5-68.6c38.1 37.1 38.7 100.2-0.2 137.7c41.3-14.8 76.8-38.9 109.1-68.9c-32.2-29.9-67.6-53.9-108.9-68.8zm-132.2 137.6c-36.9-35.6-40-99.3 0-137.7c-41.2 14.9-76.7 39-109 68.9c32.3 29.9 67.8 53.9 109 68.8z" /><path class="s0" d="m198.7 20.1c0 4 0.1 8 0 12c-0.1 4.4-2.8 7.4-6.7 7.4c-3.9 0-6.7-3-6.7-7.4q-0.2-12.1 0-24.3c0-4.4 2.9-7.3 6.8-7.2c3.8 0.1 6.5 2.9 6.6 7.2c0.1 4.1 0 8.2 0 12.3z" /><path class="s0" d="m185.2 273.4c0-4 0-8 0.1-12c0-4.5 2.7-7.5 6.6-7.5c3.8-0.1 6.8 2.9 6.8 7.3q0.1 12.1 0 24.3c0 4.4-2.8 7.3-6.8 7.3c-3.9-0.1-6.6-3-6.6-7.5c-0.1-4-0.1-8-0.1-11.9z" /><path class="s0" d="m122.8 18.6c1.8 1.5 4.2 2.6 5.4 4.5c4.3 6.9 8.3 14.1 12.4 21.3c2 3.7 1.1 7.4-2.2 9.4c-3.3 1.9-7.2 1-9.4-2.6c-4.3-7.2-8.5-14.4-12.5-21.7c-2.6-4.8 0.4-10.1 6.3-10.9z" /><path class="s0" d="m268.5 26.8c-0.3 0.8-0.7 2.2-1.5 3.5q-5.7 10.1-11.5 20.1c-2.5 4.2-6.2 5.5-9.7 3.5c-3.7-2.1-4.5-5.9-2-10.4q6-10.3 12-20.7c1.8-3 4.6-4.2 8-3.2c3 1 4.6 3.3 4.7 7.2z" /><path class="s0" d="m141.8 245.9c-0.4 1-0.8 2.4-1.6 3.7q-5.7 10.1-11.5 20.1c-2.5 4.3-6.1 5.5-9.7 3.6c-3.7-2-4.6-5.9-2-10.3q5.9-10.4 11.9-20.7c1.8-3.1 4.6-4.3 8-3.3c3.1 0.8 4.6 3.2 4.9 6.9z" /><path class="s0" d="m249.7 238c1.8 1.5 4.2 2.6 5.3 4.5c4.4 7 8.4 14.1 12.5 21.3c2 3.7 1 7.4-2.4 9.4c-3.3 1.9-7.1 1-9.3-2.7c-4.3-7.2-8.5-14.4-12.5-21.7c-2.6-4.9 0.5-10.1 6.4-10.8z" /><path class="s0" d="m200.4 147.5c8.7-8.6 17-16.9 25.6-25.6c-1.7 0-3.3 0.1-4.9 0c-4-0.2-6.7-3-6.7-6.7c0-3.7 2.7-6.6 6.6-6.7c7.5-0.1 15-0.1 22.5 0c3.7 0.1 6.3 2.7 6.3 6.5q0.2 11 0 22.1c-0.1 4-2.8 6.7-6.5 6.7c-3.8 0.1-6.6-2.5-6.9-6.4c-0.2-1.6 0-3.2 0-5.5c-1.3 1.1-2.2 1.7-2.9 2.5c-7.2 7.1-14.5 14.2-21.5 21.4c-10.7 11.2-11.5 11.1-22.2-0.1c-2.7-2.8-5.5-5.5-8.5-8.6c-2.3 2.3-4.2 4.4-6.2 6.4q-14.3 14.3-28.6 28.6c-3.6 3.5-7.6 3.7-10.5 0.7c-2.8-2.9-2.4-6.8 1-10.3q19.3-19.3 38.7-38.6c4-3.9 7.3-3.9 11.3 0c4.6 4.5 9 9.1 13.4 13.6z" /></svg>